<?xml version="1.0" encoding="utf-8"?>
<!-- Generator: Adobe Illustrator 16.0.0, SVG Export Plug-In . SVG Version: 6.00 Build 0)  -->
<!DOCTYPE svg PUBLIC "-//W3C//DTD SVG 1.1//EN" "http://www.w3.org/Graphics/SVG/1.1/DTD/svg11.dtd">
<svg version="1.1" id="Layer_1" xmlns="http://www.w3.org/2000/svg" xmlns:xlink="http://www.w3.org/1999/xlink" x="0px" y="0px"
	 width="48px" height="48px" viewBox="0 0 48 48" enable-background="new 0 0 48 48" xml:space="preserve">
<path d="M38.592,14.169V8.855c0-3.418-2.727-6.2-6.145-6.2H15.693c-3.418,0-6.201,2.781-6.201,6.2v5.313H3.018
	c-1.49,0-2.698,1.208-2.698,2.698v5.865c0,1.49,1.208,2.698,2.698,2.698h0.804L6.77,41.624c0.233,1.282,1.351,2.214,2.654,2.214
	h29.292c1.304,0,2.42-0.932,2.654-2.215l2.947-16.194h0.75c1.49,0,2.698-1.208,2.698-2.698v-5.865c0-1.49-1.208-2.698-2.698-2.698
	H38.592z M14.49,8.855c0-0.652,0.551-1.202,1.203-1.202h16.755c0.652,0,1.147,0.55,1.147,1.202v5.313H14.49V8.855z M18.222,34.196
	c0,1.037-0.829,1.877-1.866,1.877c-1.036,0-1.866-0.84-1.866-1.877V23.892c0-1.037,0.83-1.877,1.866-1.877
	c1.038,0,1.866,0.841,1.866,1.877V34.196z M25.94,34.196c0,1.037-0.83,1.877-1.866,1.877c-1.036,0-1.867-0.84-1.867-1.877V23.892
	c0-1.037,0.831-1.877,1.867-1.877c1.037,0,1.866,0.841,1.866,1.877V34.196z M33.658,34.196c0,1.037-0.83,1.877-1.866,1.877
	c-1.037,0-1.866-0.84-1.866-1.877V23.892c0-1.037,0.83-1.877,1.866-1.877c1.036,0,1.866,0.841,1.866,1.877V34.196z"/>
</svg>
