<?xml version="1.0" encoding="UTF-8"?>
<svg id="Layer_1" xmlns="http://www.w3.org/2000/svg" xmlns:xlink="http://www.w3.org/1999/xlink" viewBox="0 0 741 316">
  <defs>
    <style>
      .cls-1 {
        fill: url(#linear-gradient);
      }
    </style>
    <linearGradient id="linear-gradient" x1="371" y1="-.36" x2="371" y2="316.36" gradientUnits="userSpaceOnUse">
      <stop offset="0" stop-color="#795548"/>
      <stop offset="1" stop-color="#3e2723"/>
    </linearGradient>
  </defs>
  <path class="cls-1" d="M736.27,127.3c-17.41,7.29-35.26,12.95-53.58,17.46-3.34.79-6.12-2.19-6.27-6.6-.96-24.86-3.33-49.47-7.38-74.02-.72-4.22,1.26-8.37,4.46-9.5,18.06-6.61,35.27-14.88,52.25-23.89,3.04-1.63,6.2.65,7.03,5.25,4.64,26.58,7.46,53.28,8.59,80.23.12,4.07-1.27,8.98-5.08,11.07ZM687.06,161.89c15.58-3.65,30.82-8.06,45.79-13.72,6.51-2.22,9.33,5.98,8.89,11.01-.16,8.23-.39,16.46-.68,24.69-1.08,27.76-2.71,55.5-4.14,83.24-.13,5.85-2.93,13.67-8.94,15.75-22.56,4.93-282.86,19.58-301.7,21.88-7.54.69-9.11-11.14-8.72-16.31,3.58-92.39,11.4-175.45,12.32-267.92.42-6.18,1.1-17.6,8.18-20.25,15.62-2.89,27.4,4.7,39.91,13.32,6.21,4.86,8.72,14.8,9.09,22.24,2.15,51.83.73,103.58-1.1,155.4-.37,6.01,1.66,16.7,8.87,18.09h0c7.74.63,9.48-8.42,10.2-14.11,1.15-48.93,1.68-97.77-1.53-146.64.12-2.78,1.17-14.37,7.08-7.78,14.9,12.75,29.03,22.78,48.42,27.13,6.65,1.24,13.43,1.9,20.2,1.89,19.72-.3,39.32-3.15,58.79-6.11,6.22-.6,11.48,4.78,12.1,10.81,5.65,38.35,6.9,76.8,6.04,115.5-.03,5.8,3.04,12.59,9.79,11.96h0c6.53-1.5,10.7-8.78,10.64-15.22.08-3.65.12-5.47.18-9.13.27-6.11,3.58-14.24,10.33-15.73ZM578.14,209.69h0c6.39-.41,10.27-7.38,10.03-13.31,0-8.77-.05-17.54-.19-26.31.14-6.08-4.15-12.52-10.43-13.18h0c-6.62-.51-9.85,7.12-9.85,12.51.18,8.87.26,17.73.3,26.6.17,5.5,3.38,13.74,10.14,13.68ZM337.03,259.28c-1.01,14.56-1.93,29.12-2.86,43.68-.32,4.97,2.05,8.77,5.27,8.57,17.94-1.15,35.81-2.54,53.65-4.73,4.39-1.17,5.79-6.7,5.92-10.48.68-16.01,1.37-32.01,2.12-48.02.3-3.72-.44-8.66-4.97-9.05-17.45,4.09-34.94,7-52.66,9.76-4.37,1.22-6.21,6.35-6.48,10.27ZM345.08,228.82c17.63-3.31,34.99-6.76,52.29-11.49,4.38-1.83,5.85-7.4,6.05-11.54.93-16.03,2.01-32.06,3.11-48.09.38-5.56-1.72-9.01-4.73-7.84-16.74,6.55-33.58,11.64-50.87,16.62-4.19,1.72-6.2,6.57-6.65,10.64-1.52,14.55-2.97,29.1-4.21,43.67-.43,5.19,1.85,8.62,5.02,8.02ZM191.77,125.1c-4.01,19.9-8.04,39.8-12.01,59.71-.7,3.52,1.28,5.88,4.35,5.21,17.94-4.21,35.55-9.61,53.23-14.72,3.86-1.41,6.24-5.31,6.9-9.09,3.58-23.02,7.1-46.06,10.29-69.13.51-3.75-1.63-5.34-4.63-3.85-16.98,8.45-33.8,17.19-51.46,24.26-3.06,1.19-6.02,4.43-6.66,7.61ZM96.25,199.17c19.01-.11,37.9-2.62,56.77-4.68,3.28-.35,6.44-3.33,7.15-6.7,4.05-19.11,8.2-38.2,12.41-57.28.67-3.03-1.33-4.62-4.46-3.74-18.47,5.24-36.83,11.16-55.95,13.81-3.38.37-6.7,2.32-7.44,4.82-4.72,16.09-9.07,32.26-13.21,48.5-.72,2.84,1.41,5.24,4.73,5.27ZM10.35,188.54c17.13,4.64,33.8,7.73,51.59,8.85,3.67.2,7.51-1.87,8.23-4.6,4.12-15.64,8.45-31.21,13.3-46.65.75-2.38-2.36-3.86-6.32-3.66-18.14.86-35.99.54-54.11-.53-3.97-.24-8.04.79-8.61,2.65-3.86,12.58-7.1,25.29-9.89,38.12-.47,2.21,2.32,4.86,5.81,5.82ZM282.4,76.43c-5.61,3.21-9.1,10.23-9.75,16.33-3.45,27.85-7.38,55.63-11.32,83.42-2.23,15.81-4.4,31.63-6.21,47.49-.72,6.32-4.43,13.34-11.26,15.07h0c-6.64.74-8.95-6.21-8.44-11.39.66-5.61,1.38-11.2,2.15-16.8-.1-4.64-.92-11.7-7.96-10.03-15.25,3.45-30.45,7.05-45.77,10.2-5.81,1.09-10.06,6.82-11.14,12.07-.46,2.84-.69,4.27-1.12,7.16-.65,5.51-5.26,10.93-11.14,11.47h0c-5.82.03-9.29-5.26-8.47-10.46.42-2.77.65-4.14,1.11-6.85,1-5.1-2.6-9.91-8.24-9.48-16.17.96-32.31,1.95-48.51,1.79-5.16-.1-10.53,2.74-11.69,7.87-.42,2.27-.63,3.42-1.01,5.75-.88,5.4-6.71,8.17-11.97,7.44h0c-5.15-.75-9.58-4.81-9.18-10.05.36-2.24.55-3.34.96-5.52.72-5.25-4.62-8.53-9.4-9-14.58-1.72-28.32-4.95-42.2-9.59-3.35-1.21-10.11-1.96-11.05,2.74-.41,4.37-.54,6.61-.58,11.46.13,13.21,1.81,26.22,3.47,39.33,1.01,5.14,4.35,10.71,8.5,14.13,21.66,16.79,47.69,22.62,74.14,29.01,22.54,5.45,45.53,9.83,68.58,12.69,48.89,6.07,99.75,3.38,148.78.86,7.21-.91,10.57-9.04,10.95-15.16,1.81-28.25,3.79-56.48,6.41-84.68,1.44-14.84,3.08-29.65,4.77-44.46.65-6.75,4.88-15.36,11.77-18.03,20.88-6.95,41.82-13.17,62.02-21.87,7.1-3.49,9.71-13.88,10.13-20.75,1.76-30.25,3.01-60.52,3.42-90.81-.3-3.73-1.57-14.71-8.49-10-38.16,26.23-81.31,46.76-122.26,68.66Z"/>
</svg>